<svg width="33" height="32" viewBox="0 0 33 32" fill="none" xmlns="http://www.w3.org/2000/svg">
    <path d="M16.5 0C7.66089 0 0.5 7.16089 0.5 16C0.5 24.8391 7.66089 31.9999 16.5 31.9999C25.3391 31.9999 32.4999 24.8391 32.4999 16C32.4999 7.16089 25.3391 0 16.5 0ZM26.5409 14.1867L21.556 18.8871L23.0778 24.3413C23.3836 25.4435 22.8431 25.8631 21.8546 25.2729L16.5 22.0444L11.1382 25.2657C10.1569 25.8559 9.58092 25.4364 9.85821 24.32L11.3302 18.3893L6.50175 14.1298C5.64132 13.3689 5.87596 12.7573 7.02087 12.7573H12.8875L15.6751 6.27202C16.1302 5.21956 16.8555 5.21956 17.2964 6.2791L20.0199 12.7573H25.9648C27.1168 12.7645 27.3729 13.4044 26.5409 14.1867Z" fill="#008000" />
</svg>