<svg width="24" height="18" viewBox="0 0 24 18" fill="none" xmlns="http://www.w3.org/2000/svg">
    <path d="M15.5511 9.99614L13.541 12.013C12.7259 12.831 11.2917 12.8486 10.459 12.013L8.44884 9.99614L1.22934 17.2391C1.49808 17.3633 1.79438 17.4375 2.10938 17.4375H21.8906C22.2056 17.4375 22.5018 17.3634 22.7705 17.2391L15.5511 9.99614Z" fill="#565656" />
    <path d="M21.8906 0.5625H2.10938C1.79438 0.5625 1.49808 0.636656 1.22944 0.760922L8.94398 8.50106L8.94563 8.50219L8.94623 8.50341L11.4547 11.0201C11.7211 11.2866 12.279 11.2866 12.5454 11.0201L15.0533 8.50383L15.0545 8.50219L15.0561 8.50106L22.7705 0.760875C22.5018 0.636563 22.2056 0.5625 21.8906 0.5625Z" fill="#565656" />
    <path d="M0.224344 1.74431C0.0853125 2.02547 0 2.33756 0 2.67188V15.3281C0 15.6624 0.0852187 15.9745 0.224297 16.2557L7.45631 9.00023L0.224344 1.74431Z" fill="#565656" />
    <path d="M23.7757 1.74422L16.5437 9.00023L23.7757 16.2558C23.9147 15.9746 24 15.6625 24 15.3281V2.67188C24 2.33747 23.9147 2.02538 23.7757 1.74422Z" fill="#565656" />
</svg>