<svg width="106" height="34" viewBox="0 0 106 34" fill="none" xmlns="http://www.w3.org/2000/svg">
<g clip-path="url(#clip0_9_3251)">
<path d="M16.5129 33.5129C25.6327 33.5129 33.0258 26.1198 33.0258 17C33.0258 7.88017 25.6327 0.487087 16.5129 0.487087C7.39308 0.487087 0 7.88017 0 17C0 26.1198 7.39308 33.5129 16.5129 33.5129Z" fill="url(#paint0_linear_9_3251)"/>
<path d="M24.2844 13.9778C23.9628 13.7688 23.7351 13.4327 23.6809 13.053C23.2765 10.2193 20.7093 8 17.6133 8C15.5166 8 13.5995 9.0369 12.4828 10.6693C12.2674 10.984 11.9138 11.1774 11.5383 11.2443C10.5137 11.4269 9.67628 12.1471 9.37941 13.0848C9.26737 13.4387 9.05055 13.7633 8.73796 13.9635C7.68339 14.6389 7 15.768 7 17C7 19.0352 8.78531 20.7266 10.9336 20.7266H11.6035C12.1558 20.7266 12.6035 21.1743 12.6035 21.7266V23.1721C12.6035 23.5689 12.2818 23.8906 11.885 23.8906C11.5858 23.8906 11.3292 23.6941 11.1421 23.4607C10.8384 23.0817 10.3607 22.8359 9.82031 22.8359C8.89954 22.8359 8.15039 23.5457 8.15039 24.418C8.15039 25.2903 8.89954 26 9.82031 26C10.2886 26 10.7098 25.8154 11.0115 25.5196C11.3087 25.2281 11.6634 24.9453 12.0797 24.9453H12.7168C13.2691 24.9453 13.7168 24.4976 13.7168 23.9453V21.7266C13.7168 21.1743 14.1645 20.7266 14.7168 20.7266H14.9434C15.4956 20.7266 15.9434 21.1743 15.9434 21.7266V22.2154C15.9434 22.6443 15.645 23.0045 15.3303 23.2959C15.022 23.5812 14.8301 23.9776 14.8301 24.418C14.8301 25.2903 15.5792 26 16.5 26C17.4208 26 18.1699 25.2903 18.1699 24.418C18.1699 23.9776 17.978 23.5812 17.6697 23.2959C17.355 23.0045 17.0566 22.6443 17.0566 22.2154V21.7266C17.0566 21.1743 17.5044 20.7266 18.0566 20.7266H18.2832C18.8355 20.7266 19.2832 21.1743 19.2832 21.7266V23.9453C19.2832 24.4976 19.7309 24.9453 20.2832 24.9453H20.9203C21.3366 24.9453 21.6913 25.2281 21.9885 25.5196C22.2902 25.8154 22.7114 26 23.1797 26C24.1005 26 24.8496 25.2903 24.8496 24.418C24.8496 23.5457 24.1995 22.8359 23.1797 22.8359C22.6393 22.8359 22.1616 23.0817 21.8579 23.4607C21.6708 23.6941 21.4142 23.8906 21.115 23.8906C20.7182 23.8906 20.3965 23.5689 20.3965 23.1721V21.7266C20.3965 21.1743 20.8442 20.7266 21.3965 20.7266H22.0664C24.2147 20.7266 26 19.0352 26 17C26 15.7769 25.3262 14.6548 24.2844 13.9778ZM17.4292 18.5581C17.1762 18.7049 16.8286 18.5935 16.5365 18.5767C16.5121 18.5753 16.4877 18.5753 16.4633 18.5767C16.1712 18.5935 15.8237 18.7049 15.5707 18.558C15.3001 18.4009 15.215 18.0385 15.4726 17.8608C16.0635 17.4529 16.9364 17.4529 17.5273 17.8607C17.7849 18.0385 17.6999 18.4009 17.4292 18.5581ZM19.328 17.4579C19.0749 17.6044 18.7551 17.5214 18.5524 17.3106C18.0301 16.7673 17.2942 16.4541 16.5 16.4541C15.7058 16.4541 14.9699 16.7673 14.4476 17.3106C14.2449 17.5214 13.9251 17.6043 13.672 17.4578C13.4008 17.3009 13.3137 16.9458 13.5214 16.7113C14.2567 15.8813 15.3334 15.3994 16.5 15.3994C17.6667 15.3994 18.7433 15.8813 19.4786 16.7112C19.6864 16.9457 19.5992 17.3009 19.328 17.4579ZM21.2275 16.3572C20.9744 16.5037 20.6532 16.4233 20.4692 16.1959C19.5244 15.0282 18.0767 14.3447 16.5 14.3447C14.9233 14.3447 13.4756 15.0282 12.5308 16.1959C12.3468 16.4233 12.0256 16.5037 11.7725 16.3572C11.5014 16.2003 11.4149 15.8467 11.6093 15.6012C12.7631 14.1443 14.5509 13.2901 16.5 13.2901C18.4491 13.2901 20.2369 14.1443 21.3907 15.6012C21.5851 15.8467 21.4986 16.2003 21.2275 16.3572Z" fill="black"/>
<path d="M24.2844 13.9778C23.9628 13.7688 23.7351 13.4327 23.6809 13.053C23.2765 10.2193 20.7093 8 17.6133 8C15.5166 8 13.5995 9.0369 12.4828 10.6693C12.2674 10.984 11.9138 11.1774 11.5383 11.2443C10.5137 11.4269 9.67628 12.1471 9.37941 13.0848C9.26737 13.4387 9.05055 13.7633 8.73796 13.9635C7.68339 14.6389 7 15.768 7 17C7 19.0352 8.78531 20.7266 10.9336 20.7266H11.6035C12.1558 20.7266 12.6035 21.1743 12.6035 21.7266V23.1721C12.6035 23.5689 12.2818 23.8906 11.885 23.8906C11.5858 23.8906 11.3292 23.6941 11.1421 23.4607C10.8384 23.0817 10.3607 22.8359 9.82031 22.8359C8.89954 22.8359 8.15039 23.5457 8.15039 24.418C8.15039 25.2903 8.89954 26 9.82031 26C10.2886 26 10.7098 25.8154 11.0115 25.5196C11.3087 25.2281 11.6634 24.9453 12.0797 24.9453H12.7168C13.2691 24.9453 13.7168 24.4976 13.7168 23.9453V21.7266C13.7168 21.1743 14.1645 20.7266 14.7168 20.7266H14.9434C15.4956 20.7266 15.9434 21.1743 15.9434 21.7266V22.2154C15.9434 22.6443 15.645 23.0045 15.3303 23.2959C15.022 23.5812 14.8301 23.9776 14.8301 24.418C14.8301 25.2903 15.5792 26 16.5 26C17.4208 26 18.1699 25.2903 18.1699 24.418C18.1699 23.9776 17.978 23.5812 17.6697 23.2959C17.355 23.0045 17.0566 22.6443 17.0566 22.2154V21.7266C17.0566 21.1743 17.5044 20.7266 18.0566 20.7266H18.2832C18.8355 20.7266 19.2832 21.1743 19.2832 21.7266V23.9453C19.2832 24.4976 19.7309 24.9453 20.2832 24.9453H20.9203C21.3366 24.9453 21.6913 25.2281 21.9885 25.5196C22.2902 25.8154 22.7114 26 23.1797 26C24.1005 26 24.8496 25.2903 24.8496 24.418C24.8496 23.5457 24.1995 22.8359 23.1797 22.8359C22.6393 22.8359 22.1616 23.0817 21.8579 23.4607C21.6708 23.6941 21.4142 23.8906 21.115 23.8906C20.7182 23.8906 20.3965 23.5689 20.3965 23.1721V21.7266C20.3965 21.1743 20.8442 20.7266 21.3965 20.7266H22.0664C24.2147 20.7266 26 19.0352 26 17C26 15.7769 25.3262 14.6548 24.2844 13.9778ZM17.4292 18.5581C17.1762 18.7049 16.8286 18.5935 16.5365 18.5767C16.5121 18.5753 16.4877 18.5753 16.4633 18.5767C16.1712 18.5935 15.8237 18.7049 15.5707 18.558C15.3001 18.4009 15.215 18.0385 15.4726 17.8608C16.0635 17.4529 16.9364 17.4529 17.5273 17.8607C17.7849 18.0385 17.6999 18.4009 17.4292 18.5581ZM19.328 17.4579C19.0749 17.6044 18.7551 17.5214 18.5524 17.3106C18.0301 16.7673 17.2942 16.4541 16.5 16.4541C15.7058 16.4541 14.9699 16.7673 14.4476 17.3106C14.2449 17.5214 13.9251 17.6043 13.672 17.4578C13.4008 17.3009 13.3137 16.9458 13.5214 16.7113C14.2567 15.8813 15.3334 15.3994 16.5 15.3994C17.6667 15.3994 18.7433 15.8813 19.4786 16.7112C19.6864 16.9457 19.5992 17.3009 19.328 17.4579ZM21.2275 16.3572C20.9744 16.5037 20.6532 16.4233 20.4692 16.1959C19.5244 15.0282 18.0767 14.3447 16.5 14.3447C14.9233 14.3447 13.4756 15.0282 12.5308 16.1959C12.3468 16.4233 12.0256 16.5037 11.7725 16.3572C11.5014 16.2003 11.4149 15.8467 11.6093 15.6012C12.7631 14.1443 14.5509 13.2901 16.5 13.2901C18.4491 13.2901 20.2369 14.1443 21.3907 15.6012C21.5851 15.8467 21.4986 16.2003 21.2275 16.3572Z" fill="url(#paint1_linear_9_3251)"/>
<path d="M25.0706 14.2977L23.5539 14.767C23.2196 14.8704 22.9299 14.5136 23.0998 14.2077L23.8707 12.8197L22.9556 11.5222C22.754 11.2363 23.0038 10.8505 23.3472 10.9175L24.9055 11.2218L25.8567 9.95056C26.0664 9.6704 26.5105 9.7888 26.5529 10.1361L26.7451 11.7122L28.248 12.224C28.5792 12.3368 28.6039 12.7958 28.2866 12.9434L26.8471 13.6132L26.8248 15.2007C26.8199 15.5506 26.3909 15.7159 26.1525 15.4598L25.0706 14.2977Z" fill="#FFD164"/>
<path d="M22.9564 11.5222L23.8714 12.8197L23.1005 14.2077C22.9306 14.5136 23.2204 14.8705 23.5546 14.767L25.0713 14.2977L26.1532 15.4598C26.2697 15.5849 26.4314 15.6083 26.5672 15.5597L24.9062 11.2218L23.348 10.9176C23.0045 10.8505 22.7547 11.2363 22.9564 11.5222Z" fill="#FFC350"/>
<path d="M15.0961 8.85992L13.7418 9.84372C13.4433 10.0606 13.0329 9.80281 13.0986 9.4398L13.3963 7.79258L12.0422 6.80855C11.7438 6.59166 11.862 6.12171 12.2275 6.07192L13.8862 5.84611L14.4036 4.25415C14.5176 3.90331 15.0012 3.87056 15.1614 4.20283L15.8888 5.71049L17.5627 5.71063C17.9316 5.71068 18.1122 6.1604 17.8457 6.41554L16.6366 7.57315L17.1538 9.16519C17.2677 9.51608 16.8958 9.82676 16.5708 9.65215L15.0961 8.85992Z" fill="#FFD164"/>
<path d="M12.0432 6.80849L13.3973 7.79251L13.0995 9.43974C13.0339 9.80279 13.4444 10.0605 13.7428 9.84366L15.0971 8.8599L16.5717 9.65209C16.7305 9.73744 16.8999 9.70576 17.0189 9.61119L13.8872 5.84604L12.2286 6.0719C11.863 6.12165 11.7448 6.59165 12.0432 6.80849Z" fill="#FFC350"/>
<path d="M7.90668 15.0896L7.15931 16.5024C6.99459 16.8138 6.53438 16.7654 6.43802 16.4266L6.00071 14.8892L4.42609 14.615C4.07907 14.5546 3.98284 14.102 4.27527 13.9056L5.60224 13.0146L5.37647 11.4323C5.32671 11.0836 5.72745 10.8522 6.00456 11.0697L7.26199 12.0564L8.69708 11.3527C9.01336 11.1976 9.35725 11.5072 9.23609 11.838L8.68627 13.3387L9.79898 14.4861C10.0442 14.739 9.85598 15.1617 9.50399 15.1487L7.90668 15.0896Z" fill="#FFD164"/>
<path d="M4.42714 14.6148L6.00176 14.889L6.43907 16.4263C6.53545 16.7652 6.99568 16.8135 7.16036 16.5021L7.90776 15.0894L9.50497 15.1485C9.67701 15.1549 9.80886 15.0565 9.87116 14.9254L5.60329 13.0144L4.27638 13.9054C3.9839 14.1017 4.08014 14.5544 4.42714 14.6148Z" fill="#FFC350"/>
<path d="M12.4236 29.3013L10.6191 29.3681C10.2213 29.3829 10.0087 28.9052 10.2858 28.6196L11.5429 27.3233L10.9217 25.6277C10.7848 25.254 11.1733 24.9041 11.5307 25.0793L13.152 25.8744L14.5727 24.7596C14.8858 24.5139 15.3385 24.7753 15.2823 25.1693L15.0272 26.957L16.5265 27.9637C16.8569 28.1855 16.7482 28.6969 16.3561 28.7652L14.5771 29.075L14.083 30.8119C13.9741 31.1947 13.4542 31.2494 13.2681 30.8976L12.4236 29.3013Z" fill="#FFD164"/>
<path d="M10.9214 25.6278L11.5426 27.3233L10.2854 28.6197C10.0084 28.9054 10.221 29.383 10.6187 29.3682L12.4233 29.3014L13.2677 30.8976C13.3586 31.0696 13.5293 31.143 13.6928 31.1299L13.1517 25.8745L11.5304 25.0795C11.173 24.9042 10.7845 25.2541 10.9214 25.6278Z" fill="#FFC350"/>
<path d="M23.2517 29.8146L22.5987 31.0492C22.4547 31.3213 22.0526 31.279 21.9684 30.9829L21.5863 29.6396L20.2103 29.3999C19.9071 29.3471 19.823 28.9516 20.0785 28.78L21.2381 28.0015L21.0408 26.6188C20.9973 26.3141 21.3475 26.1119 21.5896 26.3019L22.6884 27.1641L23.9424 26.5492C24.2188 26.4137 24.5193 26.6843 24.4134 26.9733L23.933 28.2847L24.9053 29.2873C25.1196 29.5083 24.9551 29.8777 24.6475 29.8663L23.2517 29.8146Z" fill="#FFD164"/>
<path d="M20.211 29.4L21.587 29.6396L21.9691 30.983C22.0533 31.279 22.4555 31.3213 22.5994 31.0492L23.2525 29.8147L24.6482 29.8663C24.7985 29.8719 24.9137 29.786 24.9681 29.6714L21.2388 28.0015L20.0793 28.7801C19.8237 28.9517 19.9078 29.3472 20.211 29.4Z" fill="#FFC350"/>
</g>
<path d="M40.326 18.1576H38.634C38.2898 18.1576 38.0109 17.8786 38.0109 17.5345V11.8352C38.0109 11.4911 38.2898 11.2121 38.634 11.2121H39.7029C40.047 11.2121 40.326 11.4911 40.326 11.8352V18.1576ZM42.6412 18.1576V11.8352C42.6412 11.4911 42.9202 11.2121 43.2643 11.2121H44.3332C44.6774 11.2121 44.9564 11.4911 44.9564 11.8352V17.5345C44.9564 17.8786 44.6774 18.1576 44.3332 18.1576H42.6412ZM42.6412 22.1648C42.6412 22.5089 42.3622 22.7879 42.0181 22.7879H40.9492C40.605 22.7879 40.326 22.5089 40.326 22.1648V18.1576H42.6412V22.1648Z" fill="url(#paint2_linear_9_3251)"/>
<path d="M49.5867 22.1648C49.5867 22.5089 49.3077 22.7879 48.9636 22.7879H47.8946C47.5505 22.7879 47.2715 22.5089 47.2715 22.1648V14.1504C47.2715 13.8062 47.5505 13.5273 47.8946 13.5273H55.909C56.2532 13.5273 56.5322 13.8062 56.5322 14.1504V15.8424H54.8401C54.496 15.8424 54.217 16.1214 54.217 16.4655V22.1648C54.217 22.5089 53.938 22.7879 53.5939 22.7879H52.525C52.1808 22.7879 51.9018 22.5089 51.9018 22.1648V16.4655C51.9018 16.1214 51.6229 15.8424 51.2787 15.8424H50.2098C49.8657 15.8424 49.5867 16.1214 49.5867 16.4655V22.1648ZM58.8473 22.1648C58.8473 22.5089 58.5683 22.7879 58.2242 22.7879H57.1553C56.8112 22.7879 56.5322 22.5089 56.5322 22.1648V15.8424H58.2242C58.5683 15.8424 58.8473 16.1214 58.8473 16.4655V22.1648Z" fill="url(#paint3_linear_9_3251)"/>
<path d="M63.4777 22.1648C63.4777 22.5089 63.1987 22.7879 62.8545 22.7879H61.7856C61.4415 22.7879 61.1625 22.5089 61.1625 22.1648V11.8352C61.1625 11.4911 61.4415 11.2121 61.7856 11.2121H62.8545C63.1987 11.2121 63.4777 11.4911 63.4777 11.8352V22.1648Z" fill="url(#paint4_linear_9_3251)"/>
<path d="M66.416 11.2121C66.0718 11.2121 65.7928 10.9331 65.7928 10.589V9.52006C65.7928 9.17591 66.0718 8.89693 66.416 8.89693H67.4849C67.829 8.89693 68.108 9.17591 68.108 9.52006V10.589C68.108 10.9331 67.829 11.2121 67.4849 11.2121H66.416ZM68.108 22.1648C68.108 22.5089 67.829 22.7879 67.4849 22.7879H66.416C66.0718 22.7879 65.7928 22.5089 65.7928 22.1648V14.1504C65.7928 13.8062 66.0718 13.5273 66.416 13.5273H67.4849C67.829 13.5273 68.108 13.8062 68.108 14.1504V22.1648Z" fill="url(#paint5_linear_9_3251)"/>
<path d="M72.7383 22.1648C72.7383 22.5089 72.4593 22.7879 72.1152 22.7879H71.0463C70.7021 22.7879 70.4231 22.5089 70.4231 22.1648V14.1504C70.4231 13.8062 70.7021 13.5273 71.0463 13.5273H74.4303C74.7745 13.5273 75.0535 13.8062 75.0535 14.1504V15.8424H73.3614C73.0173 15.8424 72.7383 16.1214 72.7383 16.4655V22.1648ZM77.3686 22.1648C77.3686 22.5089 77.0897 22.7879 76.7455 22.7879H75.6766C75.3325 22.7879 75.0535 22.5089 75.0535 22.1648V15.8424H76.7455C77.0897 15.8424 77.3686 16.1214 77.3686 16.4655V22.1648Z" fill="url(#paint6_linear_9_3251)"/>
<path d="M81.999 20.4727H80.3069C79.9628 20.4727 79.6838 20.1938 79.6838 19.8496V16.4655C79.6838 16.1214 79.9628 15.8424 80.3069 15.8424H81.3758C81.72 15.8424 81.999 15.5634 81.999 15.2193V14.1504C81.999 13.8062 82.278 13.5273 82.6221 13.5273H83.691C84.0351 13.5273 84.3141 13.8062 84.3141 14.1504V15.2193C84.3141 15.5634 84.5931 15.8424 84.9373 15.8424H86.0062C86.3503 15.8424 86.6293 16.1214 86.6293 16.4655V17.5345C86.6293 17.8786 86.3503 18.1576 86.0062 18.1576H82.6221C82.278 18.1576 81.999 18.4366 81.999 18.7807V20.4727ZM82.6221 22.7879C82.278 22.7879 81.999 22.5089 81.999 22.1648V20.4727H86.0062C86.3503 20.4727 86.6293 20.7517 86.6293 21.0959V22.1648C86.6293 22.5089 86.3503 22.7879 86.0062 22.7879H82.6221Z" fill="url(#paint7_linear_9_3251)"/>
<path d="M89.5676 22.7879C89.2234 22.7879 88.9445 22.5089 88.9445 22.1648V21.0959C88.9445 20.7517 89.2234 20.4727 89.5676 20.4727H90.6365C90.9806 20.4727 91.2596 20.7517 91.2596 21.0959V22.1648C91.2596 22.5089 90.9806 22.7879 90.6365 22.7879H89.5676Z" fill="url(#paint8_linear_9_3251)"/>
<path d="M98.2051 20.4727V22.1648C98.2051 22.5089 97.9261 22.7879 97.582 22.7879H96.5131C96.1689 22.7879 95.8899 23.0669 95.8899 23.411V24.4799C95.8899 24.8241 95.611 25.1031 95.2668 25.1031H94.1979C93.8538 25.1031 93.5748 24.8241 93.5748 24.4799V14.1504C93.5748 13.8062 93.8538 13.5273 94.1979 13.5273H97.582C97.9261 13.5273 98.2051 13.8062 98.2051 14.1504V15.8424H96.5131C96.1689 15.8424 95.8899 16.1214 95.8899 16.4655V19.8496C95.8899 20.1938 96.1689 20.4727 96.5131 20.4727H98.2051ZM100.52 19.8496C100.52 20.1938 100.241 20.4727 99.8971 20.4727H98.2051V15.8424H99.8971C100.241 15.8424 100.52 16.1214 100.52 16.4655V19.8496Z" fill="url(#paint9_linear_9_3251)"/>
<path d="M105.151 22.1648C105.151 22.5089 104.872 22.7879 104.527 22.7879H103.459C103.114 22.7879 102.835 22.5089 102.835 22.1648V11.8352C102.835 11.4911 103.114 11.2121 103.459 11.2121H104.527C104.872 11.2121 105.151 11.4911 105.151 11.8352V22.1648Z" fill="url(#paint10_linear_9_3251)"/>
<defs>
<linearGradient id="paint0_linear_9_3251" x1="16.5129" y1="33.5129" x2="16.5129" y2="0.487087" gradientUnits="userSpaceOnUse">
<stop stop-color="#ADDCFF"/>
<stop offset="0.5028" stop-color="#EAF6FF"/>
<stop offset="1" stop-color="#EAF6FF"/>
</linearGradient>
<linearGradient id="paint1_linear_9_3251" x1="16.5" y1="26" x2="16.5" y2="8" gradientUnits="userSpaceOnUse">
<stop stop-color="#00C0FF"/>
<stop offset="1" stop-color="#3235E7"/>
</linearGradient>
<linearGradient id="paint2_linear_9_3251" x1="72.9061" y1="27.1498" x2="72.9061" y2="6.58655" gradientUnits="userSpaceOnUse">
<stop stop-color="#00C0FF"/>
<stop offset="1" stop-color="#3235E7"/>
</linearGradient>
<linearGradient id="paint3_linear_9_3251" x1="72.9061" y1="27.1498" x2="72.9061" y2="6.58655" gradientUnits="userSpaceOnUse">
<stop stop-color="#00C0FF"/>
<stop offset="1" stop-color="#3235E7"/>
</linearGradient>
<linearGradient id="paint4_linear_9_3251" x1="72.9061" y1="27.1498" x2="72.9061" y2="6.58655" gradientUnits="userSpaceOnUse">
<stop stop-color="#00C0FF"/>
<stop offset="1" stop-color="#3235E7"/>
</linearGradient>
<linearGradient id="paint5_linear_9_3251" x1="72.9061" y1="27.1498" x2="72.9061" y2="6.58655" gradientUnits="userSpaceOnUse">
<stop stop-color="#00C0FF"/>
<stop offset="1" stop-color="#3235E7"/>
</linearGradient>
<linearGradient id="paint6_linear_9_3251" x1="72.9061" y1="27.1498" x2="72.9061" y2="6.58655" gradientUnits="userSpaceOnUse">
<stop stop-color="#00C0FF"/>
<stop offset="1" stop-color="#3235E7"/>
</linearGradient>
<linearGradient id="paint7_linear_9_3251" x1="72.9061" y1="27.1498" x2="72.9061" y2="6.58655" gradientUnits="userSpaceOnUse">
<stop stop-color="#00C0FF"/>
<stop offset="1" stop-color="#3235E7"/>
</linearGradient>
<linearGradient id="paint8_linear_9_3251" x1="72.9061" y1="27.1498" x2="72.9061" y2="6.58655" gradientUnits="userSpaceOnUse">
<stop stop-color="#00C0FF"/>
<stop offset="1" stop-color="#3235E7"/>
</linearGradient>
<linearGradient id="paint9_linear_9_3251" x1="72.9061" y1="27.1498" x2="72.9061" y2="6.58655" gradientUnits="userSpaceOnUse">
<stop stop-color="#00C0FF"/>
<stop offset="1" stop-color="#3235E7"/>
</linearGradient>
<linearGradient id="paint10_linear_9_3251" x1="72.9061" y1="27.1498" x2="72.9061" y2="6.58655" gradientUnits="userSpaceOnUse">
<stop stop-color="#00C0FF"/>
<stop offset="1" stop-color="#3235E7"/>
</linearGradient>
<clipPath id="clip0_9_3251">
<rect width="33.0258" height="33.0258" fill="white" transform="translate(0 0.487087)"/>
</clipPath>
</defs>
</svg>
